<svg width="1920" height="793" viewBox="0 0 1920 793" fill="none" xmlns="http://www.w3.org/2000/svg">
<path fill-rule="evenodd" clip-rule="evenodd" d="M0 0H1920V772.078C1920 772.078 1548.22 680.911 1348.74 689.349C952.166 706.122 908.176 777.515 558.979 788.442C238.062 798.483 0 715.219 0 715.219V0Z" fill="url(#paint0_linear)"/>
<rect opacity="0.1" width="983.896" height="143.129" rx="71.5643" transform="matrix(0.882205 -0.470866 0.52971 0.848179 684.481 558.619)" fill="white"/>
<rect opacity="0.5" width="89.3115" height="10.7346" rx="5.36732" transform="matrix(0.882205 -0.470866 0.52971 0.848179 865.583 392.25)" fill="url(#paint1_linear)"/>
<rect opacity="0.5" width="74.4262" height="14.5687" rx="7.28437" transform="matrix(0.882205 -0.470866 0.52971 0.848179 712.677 500.44)" fill="url(#paint2_linear)"/>
<rect width="74.4262" height="14.5687" rx="7.28437" transform="matrix(0.882205 -0.470866 0.52971 0.848179 1008.36 691.083)" fill="url(#paint3_linear)"/>
<rect opacity="0.05" width="731.191" height="143.129" rx="71.5643" transform="matrix(0.882205 -0.470866 0.52971 0.848179 90.98 344.293)" fill="white"/>
<rect opacity="0.1" width="882.969" height="143.129" rx="71.5643" transform="matrix(0.882205 -0.470866 0.52971 0.848179 1065.22 612.736)" fill="white"/>
<rect opacity="0.05" width="731.191" height="143.129" rx="71.5643" transform="matrix(0.882205 -0.470866 0.52971 0.848179 849.147 599.419)" fill="white"/>
<path opacity="0.1" fill-rule="evenodd" clip-rule="evenodd" d="M0 674.262C112.555 675.061 183.496 697.698 362.134 725.906C540.773 754.115 941.591 745.578 941.591 745.578C941.591 745.578 402.569 840.642 0 738.889" fill="white"/>
<path opacity="0.1" fill-rule="evenodd" clip-rule="evenodd" d="M124.682 765.17C124.682 765.17 455.11 723.189 678.711 714.21C902.311 705.231 1216.09 722.394 1216.09 722.394C1216.09 722.394 1126.82 723.749 766.242 770.802C405.661 817.855 124.682 765.17 124.682 765.17Z" fill="white"/>
<path opacity="0.2" fill-rule="evenodd" clip-rule="evenodd" d="M1297.91 718.697C1403.28 699.409 1587.45 689.282 1786.1 708.773V777.753C1786.1 777.753 1473.38 723.245 1297.91 718.697Z" fill="white"/>
<path fill-rule="evenodd" clip-rule="evenodd" d="M1278.39 531.853H953.655C951.637 531.853 950 530.352 950 528.502C950 526.651 951.637 525.151 953.655 525.151H1278.39C1280.41 525.151 1282.04 526.651 1282.04 528.502C1282.04 530.352 1280.41 531.853 1278.39 531.853Z" fill="#FFCA00"/>
<path fill-rule="evenodd" clip-rule="evenodd" d="M1462.44 531.853H1301.38C1299.36 531.853 1297.73 530.352 1297.73 528.502C1297.73 526.651 1299.36 525.151 1301.38 525.151H1462.44C1464.45 525.151 1466.09 526.651 1466.09 528.502C1466.09 530.352 1464.45 531.853 1462.44 531.853Z" fill="#FFCA00"/>
<path fill-rule="evenodd" clip-rule="evenodd" d="M1317.14 233.593H1292.64C1275.77 233.593 1262.09 245.524 1262.09 260.15C1262.09 271.78 1270.74 281.726 1282.76 285.286V292.684L1290.45 286.71C1291.18 286.753 1291.9 286.859 1292.64 286.859H1317.14C1334.01 286.859 1347.68 274.852 1347.68 260.226C1347.68 245.6 1334.01 233.593 1317.14 233.593Z" fill="white"/>
<path fill-rule="evenodd" clip-rule="evenodd" d="M1256.91 337.764L1266.23 323.744L1278.52 328.536V362.286C1278.52 364.926 1276.94 367.381 1274.34 368.78C1268.43 371.969 1256.91 368.301 1256.91 362.286V337.764Z" fill="#FFCA00"/>
<path fill-rule="evenodd" clip-rule="evenodd" d="M1202.69 519.2L1198.98 526.018H1222.33C1221.61 523.47 1218.86 521.827 1215.98 522.224L1213.18 522.609C1211.23 522.609 1209.9 520.822 1210.65 519.2H1202.69Z" fill="white"/>
<path fill-rule="evenodd" clip-rule="evenodd" d="M1230.36 519.2L1226.65 526.018H1249.99C1249.28 523.47 1246.53 521.827 1243.64 522.224L1240.84 522.609C1238.89 522.609 1237.57 520.822 1238.32 519.2H1230.36Z" fill="white"/>
<path fill-rule="evenodd" clip-rule="evenodd" d="M1287.25 328.967C1289.48 323.946 1286.86 316.371 1280.18 312.232C1273.74 308.24 1265.08 308.411 1258.85 312.653L1257.82 313.352C1253.76 316.116 1251.26 320.274 1250.95 324.765L1250.56 339.242L1243.94 342.384L1249.54 359.351L1255.15 353.105L1264.1 343.412L1271.43 345.325C1276 346.741 1281.03 344.675 1282.71 340.694L1282.74 340.631L1284.14 337.313L1287.25 328.967Z" fill="#FBEFE1"/>
<path fill-rule="evenodd" clip-rule="evenodd" d="M1289.02 324.082L1289.73 323.872C1290.3 314.665 1282.37 306.679 1271.67 305.669C1259.57 304.528 1249 312.687 1249.13 323.11C1249.17 326.572 1250.26 335.866 1250.26 335.866L1261.63 323.747L1262.89 324.114C1271.36 326.594 1280.55 326.583 1289.02 324.082Z" fill="#FFCA00"/>
<path fill-rule="evenodd" clip-rule="evenodd" d="M1203.29 519.957L1200.31 497.517C1199.1 489.24 1199.41 473.431 1201.25 465.243L1203.36 455.796L1199.39 432.391C1198.32 426.068 1199.37 419.606 1202.41 413.795L1205.96 404.805H1246.39L1246.04 406.524C1244.46 414.294 1244.69 424.45 1246.71 432.141L1252.82 452.396C1253.62 455.055 1253.66 457.845 1252.93 460.519L1238.82 519.957H1230.88L1230.28 498.059C1229.75 483.707 1236.34 457.513 1236.34 457.513L1224.02 430.72L1211.23 519.957H1203.29Z" fill="#FA7564"/>
<path fill-rule="evenodd" clip-rule="evenodd" d="M1227.31 404.805H1246.19L1245.83 406.524C1244.21 414.294 1244.44 424.45 1246.51 432.141L1252.8 452.396C1253.63 455.055 1253.66 457.845 1252.91 460.519L1238.4 519.957H1230.24L1229.63 498.058C1229.08 483.707 1235.86 457.513 1235.86 457.513L1223.19 430.72L1227.31 404.805Z" fill="#FD8778"/>
<path fill-rule="evenodd" clip-rule="evenodd" d="M1284.88 355.318L1271.83 379.355L1268.79 355.422L1258.69 348.892L1254.7 353.384L1243.51 342.85H1227.09V342.684C1211.81 358.387 1204.52 378.508 1205.1 399.195L1205.04 404.53H1233.51L1254.46 419.957L1262.22 413.902L1248.81 396.32L1254.7 382.648L1260.51 376.141L1269.09 397.451L1283.22 394.85L1294.95 357.538L1284.88 355.318Z" fill="#1E389D"/>
<path fill-rule="evenodd" clip-rule="evenodd" d="M1295.26 357.078C1296.83 355.955 1298.08 354.487 1298.87 352.808L1300 350.435C1300.46 348.755 1299.7 346.994 1298.1 346.07L1293.24 343.24L1295.28 337.109C1295.58 336.208 1294.94 335.27 1293.93 335.127C1293.21 335.025 1292.51 335.351 1292.18 335.938L1288.17 342.99L1287.77 343.567C1286.98 344.722 1286.38 345.977 1285.99 347.292C1285.49 348.938 1285.33 350.653 1285.5 352.353L1285.77 354.875L1295.26 357.078Z" fill="#FBEFE1"/>
<path fill-rule="evenodd" clip-rule="evenodd" d="M1425.82 515.297H1399.94V471.929H1424.34L1432.12 409.91C1433.71 400.377 1428.52 390.911 1418.99 386.059C1410.54 381.755 1399.81 381.755 1391.38 386.096L1377.49 393.082V454.264L1358.06 471.929H1390.49V515.297H1364.65C1361.11 515.297 1358.24 517.726 1358.24 520.819C1358.24 523.913 1361.11 526.598 1364.65 526.598C1368.06 526.598 1370.85 523.558 1371.04 521.493H1388.84C1389.03 523.558 1391.81 526.775 1395.23 526.775C1398.65 526.775 1401.43 523.558 1401.62 521.493H1419.42C1419.61 523.558 1422.4 526.558 1425.82 526.558C1429.35 526.558 1432.22 524.022 1432.22 520.928C1432.22 517.834 1429.35 515.297 1425.82 515.297Z" fill="black"/>
<path fill-rule="evenodd" clip-rule="evenodd" d="M1352.62 519.2L1356.33 526.018H1332.98C1333.7 523.47 1336.45 521.827 1339.33 522.224L1342.13 522.609C1344.08 522.609 1345.41 520.822 1344.66 519.2H1352.62Z" fill="white"/>
<path fill-rule="evenodd" clip-rule="evenodd" d="M1331 519.2L1334.71 526.018H1311.37C1312.09 523.47 1314.83 521.827 1317.72 522.224L1320.52 522.609C1322.47 522.609 1323.79 520.822 1323.04 519.2H1331Z" fill="white"/>
<path fill-rule="evenodd" clip-rule="evenodd" d="M1333.95 520.715L1347.12 471.289L1372.51 460.114H1387.92L1400.42 443.442L1369.02 446.472L1335.82 457.615C1332.35 458.78 1329.85 461.446 1329.23 464.633L1319.15 520.715H1333.95Z" fill="#1E389D"/>
<path fill-rule="evenodd" clip-rule="evenodd" d="M1378.41 446.702L1351.9 458.802C1348.75 460.242 1346.64 462.962 1346.3 466.039L1340.77 520.715H1354.6L1366.73 466.932L1400.54 460.115C1409.54 460.115 1416.84 453.781 1416.84 445.968V443.442L1378.41 446.702Z" fill="#212293"/>
<path fill-rule="evenodd" clip-rule="evenodd" d="M1377.18 386.884H1403.25C1410.05 386.884 1416.32 390.11 1419.67 395.33L1436.73 417.673V452.533H1424.62V421.998L1415.98 413.855V446.426H1369.3L1373.24 404.904L1354.52 420.281C1350.44 423.957 1343.48 423.034 1340.81 418.462L1324.34 390.334L1332.56 385.866L1347.1 406.73L1363.75 391.841C1367.3 388.67 1372.14 386.884 1377.18 386.884Z" fill="#FA7564"/>
<path fill-rule="evenodd" clip-rule="evenodd" d="M1370.39 358.52C1370.29 353.043 1375.7 346.628 1383.51 344.743C1391.05 342.925 1399.02 345.765 1403.13 351.734L1403.81 352.719C1406.49 356.608 1407.18 361.347 1405.71 365.726L1400.55 379.441L1400.19 387.573L1391.32 390.411L1385.31 387.573L1385.65 378.813L1378.81 378.795C1374.01 378.734 1370.16 375.212 1370.16 370.895V370.827L1370.16 365.012L1370.39 358.52Z" fill="#FBEFE1"/>
<path fill-rule="evenodd" clip-rule="evenodd" d="M1393.5 379.805V366.169H1370.16L1370.16 370.232V370.297C1370.16 374.381 1374.03 377.714 1378.86 377.772L1385.74 377.789L1385.66 379.805H1393.5Z" fill="black"/>
<path fill-rule="evenodd" clip-rule="evenodd" d="M1395.44 355.554C1395.44 355.554 1373.68 355.849 1368.43 346.068C1368.43 346.068 1381.46 338.222 1395.35 341.011C1407.18 343.594 1413.8 354.626 1409.45 364.581C1408 367.888 1405.51 373.438 1402.73 377.532V365.327L1395.62 364.159L1394.49 366.844H1391.15L1395.44 355.554Z" fill="black"/>
<path fill-rule="evenodd" clip-rule="evenodd" d="M1424.62 468.442C1423.67 468.442 1422.9 467.699 1422.9 466.782V459.505L1426.35 457.078V466.782C1426.35 467.699 1425.58 468.442 1424.62 468.442Z" fill="#FBEFE1"/>
<path fill-rule="evenodd" clip-rule="evenodd" d="M1428.14 469.199C1427.22 469.199 1426.47 468.51 1426.46 467.654L1426.35 457.078H1429.7L1429.81 467.624C1429.82 468.491 1429.07 469.199 1428.14 469.199Z" fill="#FBEFE1"/>
<path fill-rule="evenodd" clip-rule="evenodd" d="M1433.27 468.442C1432.31 468.442 1431.54 467.699 1431.54 466.782V457.078H1435V466.782C1435 467.699 1434.22 468.442 1433.27 468.442Z" fill="#FBEFE1"/>
<path fill-rule="evenodd" clip-rule="evenodd" d="M1436.42 463.896H1435.31C1434.66 463.896 1434.13 463.389 1434.13 462.763V457.078H1437.59V462.763C1437.59 463.389 1437.07 463.896 1436.42 463.896Z" fill="#FBEFE1"/>
<path fill-rule="evenodd" clip-rule="evenodd" d="M1437.59 458.069V454.826L1436.21 451.986L1426.64 451.775L1426.48 451.903C1424.2 453.819 1423.17 456.497 1423.17 459.327L1422.9 459.351L1437.59 458.069Z" fill="#FBEFE1"/>
<path fill-rule="evenodd" clip-rule="evenodd" d="M1462.66 438.896H1399.69H1237.02V448.207H1247.65L1239.32 535.109H1243.35L1265.04 448.207H1274.34L1266.97 525.798H1270.47L1289.61 448.207H1374.6L1396.29 535.109H1400.32L1391.99 448.207H1399.69H1433.81L1452.96 525.798H1456.46L1449.09 448.207H1462.66V438.896Z" fill="white"/>
<path fill-rule="evenodd" clip-rule="evenodd" d="M1050.61 515.3H1024.73V471.942H1057.2L1037.74 454.28V393.113L1023.84 386.107C1015.41 381.767 1004.8 381.744 996.347 386.047C986.813 390.898 981.541 400.407 983.134 409.937L990.853 471.942H1015.27V515.3H989.375C985.831 515.3 982.959 517.728 982.959 520.821C982.959 523.914 985.831 526.598 989.375 526.598C992.795 526.598 995.581 523.559 995.772 521.494H1013.59C1013.78 523.559 1016.57 526.775 1019.99 526.775C1023.41 526.775 1026.2 523.559 1026.39 521.494H1044.21C1044.4 523.559 1047.19 526.558 1050.61 526.558C1054.15 526.558 1057.02 524.022 1057.02 520.929C1057.02 517.836 1054.15 515.3 1050.61 515.3Z" fill="black"/>
<path fill-rule="evenodd" clip-rule="evenodd" d="M1062.64 519.2L1058.93 526.018H1082.27C1081.56 523.47 1078.81 521.827 1075.92 522.224L1073.13 522.609C1071.18 522.609 1069.85 520.822 1070.6 519.2H1062.64Z" fill="black"/>
<path fill-rule="evenodd" clip-rule="evenodd" d="M1084.25 519.2L1080.54 526.018H1103.89C1103.17 523.47 1100.42 521.827 1097.54 522.224L1094.74 522.609C1092.79 522.609 1091.46 520.822 1092.21 519.2H1084.25Z" fill="black"/>
<path fill-rule="evenodd" clip-rule="evenodd" d="M1081.31 520.715L1068.14 471.289L1042.75 460.114H1027.34L1014.84 443.442L1046.24 446.472L1079.44 457.615C1082.9 458.78 1085.41 461.446 1086.03 464.633L1096.1 520.715H1081.31Z" fill="#1E389D"/>
<path fill-rule="evenodd" clip-rule="evenodd" d="M1035.98 446.702L1062.5 458.802C1065.65 460.242 1067.75 462.962 1068.09 466.039L1073.63 520.715H1059.8L1047.66 466.932L1013.85 460.115C1004.85 460.115 997.549 453.781 997.549 445.968V443.442L1035.98 446.702Z" fill="#212293"/>
<path fill-rule="evenodd" clip-rule="evenodd" d="M1037.41 386.872H1011.01C1004.13 386.872 997.782 390.06 994.388 395.219L974.763 420.671C971.871 424.421 973.562 429.511 978.32 431.373L1005.65 442.064L1010.88 431.731L992.88 424.942C991.089 424.265 990.495 422.327 991.667 420.975L998.128 413.526V445.715H1045.4L1041.4 404.68L1060.36 419.877C1064.49 423.51 1071.53 422.598 1074.24 418.079L1090.92 390.282L1082.6 385.866L1067.87 406.485L1051.01 391.771C1047.42 388.636 1042.52 386.872 1037.41 386.872Z" fill="#FA7564"/>
<path fill-rule="evenodd" clip-rule="evenodd" d="M1043.13 358.52C1043.23 353.043 1037.83 346.628 1030.02 344.743C1022.48 342.925 1014.51 345.765 1010.39 351.734L1009.72 352.719C1007.04 356.608 1006.35 361.347 1007.82 365.726L1012.98 379.441L1013.33 387.573L1022.21 390.411L1028.21 387.573L1027.87 378.813L1034.72 378.795C1039.51 378.734 1043.37 375.212 1043.37 370.895V370.827L1043.37 365.012L1043.13 358.52Z" fill="#FBEFE1"/>
<path fill-rule="evenodd" clip-rule="evenodd" d="M1046.83 343.223C1046.83 343.223 1033.13 337.653 1019.53 340.429C1017.06 340.977 1014.84 341.927 1012.88 343.15L1010.08 340.351V345.263C1004.89 350.01 1002.91 357.189 1005.8 363.885C1007.21 367.176 1010.08 372.7 1012.43 376.775V364.628L1019.33 363.465L1019.47 354.902C1019.47 354.902 1032.44 355.517 1040.52 350.564L1043.18 355.356C1043.18 355.356 1041.39 346.224 1046.83 343.223Z" fill="black"/>
<path fill-rule="evenodd" clip-rule="evenodd" d="M1015.7 427.533C1015.7 426.696 1014.86 426.017 1013.81 426.017H1005.51L1002.74 429.048H1013.81C1014.86 429.048 1015.7 428.369 1015.7 427.533Z" fill="#FBEFE1"/>
<path fill-rule="evenodd" clip-rule="evenodd" d="M1016.57 431.368C1016.57 430.563 1015.78 429.909 1014.81 429.901L1002.74 429.805V432.74L1014.77 432.836C1015.76 432.843 1016.57 432.185 1016.57 431.368Z" fill="#FBEFE1"/>
<path fill-rule="evenodd" clip-rule="evenodd" d="M1015.7 435.108C1015.7 434.272 1014.86 433.593 1013.81 433.593H1002.74V436.624H1013.81C1014.86 436.624 1015.7 435.945 1015.7 435.108Z" fill="#FBEFE1"/>
<path fill-rule="evenodd" clip-rule="evenodd" d="M1023.48 440.9V439.923C1023.48 439.355 1022.91 438.896 1022.19 438.896H1015.7V441.927H1022.19C1022.91 441.927 1023.48 441.468 1023.48 440.9Z" fill="#FF63BE"/>
<path fill-rule="evenodd" clip-rule="evenodd" d="M1004.73 438.896H1001.03L997.789 437.682L997.549 429.297L997.696 429.163C999.882 427.158 1002.94 426.258 1006.17 426.258L1006.19 426.017L1004.73 438.896Z" fill="#FBEFE1"/>
<path fill-rule="evenodd" clip-rule="evenodd" d="M1177.37 438.896H1014.7H951.729V448.207H965.305L957.933 525.798H961.437L980.581 448.207H1014.7H1022.4L1014.07 535.109H1018.1L1039.79 448.207H1124.78L1143.92 525.798H1147.43L1140.06 448.207H1149.35L1171.04 535.109H1175.07L1166.74 448.207H1177.37V438.896Z" fill="white"/>
<path fill-rule="evenodd" clip-rule="evenodd" d="M1068.07 427.533H1158.25C1161.37 427.533 1164.05 425.616 1164.67 422.95L1175.51 376.042C1176.33 372.504 1173.23 369.199 1169.1 369.199H1078.91C1075.79 369.199 1073.11 371.116 1072.49 373.782L1061.66 420.69C1060.84 424.228 1063.94 427.533 1068.07 427.533Z" fill="white"/>
<path fill-rule="evenodd" clip-rule="evenodd" d="M1134 403.29H1106.49L1117.75 429.002C1118.95 431.748 1116.66 434.707 1113.34 434.707H1096.1V438.896H1135.27C1142.44 438.896 1147.32 432.469 1144.63 426.583L1134 403.29Z" fill="#B3D2EC"/>
<path fill-rule="evenodd" clip-rule="evenodd" d="M1364.24 265.411H1335.44C1316.9 265.411 1301.86 278.223 1301.86 294.32V294.236C1301.86 310.334 1316.9 323.299 1335.44 323.299H1364.24C1364.87 323.299 1365.5 323.246 1366.12 323.216L1374.53 329.805V321.831C1388.04 318.06 1397.82 307.064 1397.82 294.082V294.32C1397.82 278.223 1382.79 265.411 1364.24 265.411Z" fill="#FFCA00"/>
<path fill-rule="evenodd" clip-rule="evenodd" d="M1345.46 427.533H1255.27C1252.16 427.533 1249.47 425.616 1248.86 422.95L1238.02 376.042C1237.2 372.504 1240.3 369.199 1244.43 369.199H1334.62C1337.73 369.199 1340.42 371.116 1341.03 373.782L1351.87 420.69C1352.69 424.228 1349.59 427.533 1345.46 427.533Z" fill="white"/>
<path fill-rule="evenodd" clip-rule="evenodd" d="M1280.26 403.29H1307.46L1296.33 429.002C1295.14 431.748 1297.4 434.707 1300.69 434.707H1316.56V438.896H1279.01C1271.92 438.896 1267.09 432.469 1269.75 426.583L1280.26 403.29Z" fill="#B3D2EC"/>
<defs>
<linearGradient id="paint0_linear" x1="-945.879" y1="394.761" x2="-384.564" y2="1739.72" gradientUnits="userSpaceOnUse">
<stop stop-color="#250E8A"/>
<stop offset="1" stop-color="#00F9F7"/>
</linearGradient>
<linearGradient id="paint1_linear" x1="89.3115" y1="0" x2="0" y2="0" gradientUnits="userSpaceOnUse">
<stop stop-color="white" stop-opacity="0.01"/>
<stop offset="1" stop-color="#06CCE2"/>
<stop offset="1" stop-color="white"/>
</linearGradient>
<linearGradient id="paint2_linear" x1="74.4262" y1="0" x2="0" y2="0" gradientUnits="userSpaceOnUse">
<stop stop-color="white" stop-opacity="0.01"/>
<stop offset="1" stop-color="#06CCE2"/>
<stop offset="1" stop-color="white"/>
</linearGradient>
<linearGradient id="paint3_linear" x1="74.4262" y1="0" x2="0" y2="0" gradientUnits="userSpaceOnUse">
<stop stop-color="white" stop-opacity="0.01"/>
<stop offset="1" stop-color="#06CCE2"/>
<stop offset="1" stop-color="white"/>
</linearGradient>
</defs>
</svg>
